<svg version="1.2" xmlns="http://www.w3.org/2000/svg" viewBox="0 0 500 501" width="500" height="501">
	<defs>
		<clipPath clipPathUnits="userSpaceOnUse" id="cp1">
			<path d="m67.92 18.05h364v466.56h-364z"/>
		</clipPath>
		<clipPath clipPathUnits="userSpaceOnUse" id="cp2">
			<path d="m67.92 26.87h364v466.56h-364z"/>
		</clipPath>
		<clipPath clipPathUnits="userSpaceOnUse" id="cp3">
			<path d="m110.67 221.33h278.66v84h-278.66z"/>
		</clipPath>
		<clipPath clipPathUnits="userSpaceOnUse" id="cp4">
			<path d="m128 145.33h242.67v85.34h-242.67z"/>
		</clipPath>
		<clipPath clipPathUnits="userSpaceOnUse" id="cp5">
			<path d="m326.67 164h43.89v50.67h-43.89z"/>
		</clipPath>
		<clipPath clipPathUnits="userSpaceOnUse" id="cp6">
			<path d="m148.3 305.12h203.48v41.78h-203.48z"/>
		</clipPath>
		<clipPath clipPathUnits="userSpaceOnUse" id="cp7">
			<path d="m169.18 305.12h161.64c11.53 0 20.88 9.36 20.88 20.89 0 11.54-9.35 20.89-20.88 20.89h-161.64c-11.53 0-20.88-9.35-20.88-20.89 0-11.53 9.35-20.89 20.88-20.89z"/>
		</clipPath>
		<clipPath clipPathUnits="userSpaceOnUse" id="cp8">
			<path d="m148 304h204v44h-204z"/>
		</clipPath>
		<clipPath clipPathUnits="userSpaceOnUse" id="cp9">
			<path d="m148.3 305.12h203.4v41.78h-203.4z"/>
		</clipPath>
		<clipPath clipPathUnits="userSpaceOnUse" id="cp10">
			<path d="m169.18 305.12h161.64c11.53 0 20.88 9.36 20.88 20.89 0 11.54-9.35 20.89-20.88 20.89h-161.64c-11.53 0-20.88-9.35-20.88-20.89 0-11.53 9.35-20.89 20.88-20.89z"/>
		</clipPath>
		<linearGradient id="g1" x2="1" gradientUnits="userSpaceOnUse" gradientTransform="matrix(203.406,0,0,41.776,148.297,326.013)">
			<stop offset="0" stop-color="#ebc46c"/>
			<stop offset=".008" stop-color="#ebc46c"/>
			<stop offset=".016" stop-color="#ebc36b"/>
			<stop offset=".023" stop-color="#eac36a"/>
			<stop offset=".031" stop-color="#eac36a"/>
			<stop offset=".039" stop-color="#eac269"/>
			<stop offset=".047" stop-color="#eac268"/>
			<stop offset=".055" stop-color="#e9c168"/>
			<stop offset=".063" stop-color="#e9c167"/>
			<stop offset=".07" stop-color="#e9c166"/>
			<stop offset=".078" stop-color="#e8c066"/>
			<stop offset=".086" stop-color="#e8c065"/>
			<stop offset=".094" stop-color="#e8bf64"/>
			<stop offset=".102" stop-color="#e8bf64"/>
			<stop offset=".109" stop-color="#e7bf63"/>
			<stop offset=".117" stop-color="#e7be62"/>
			<stop offset=".125" stop-color="#e7be62"/>
			<stop offset=".133" stop-color="#e6bd61"/>
			<stop offset=".141" stop-color="#e6bd60"/>
			<stop offset=".148" stop-color="#e6bd60"/>
			<stop offset=".156" stop-color="#e6bc5f"/>
			<stop offset=".164" stop-color="#e5bc5e"/>
			<stop offset=".172" stop-color="#e5bb5e"/>
			<stop offset=".18" stop-color="#e5bb5d"/>
			<stop offset=".188" stop-color="#e5bb5c"/>
			<stop offset=".195" stop-color="#e4ba5c"/>
			<stop offset=".203" stop-color="#e4ba5b"/>
			<stop offset=".211" stop-color="#e4b95a"/>
			<stop offset=".219" stop-color="#e3b95a"/>
			<stop offset=".227" stop-color="#e3b959"/>
			<stop offset=".234" stop-color="#e3b858"/>
			<stop offset=".242" stop-color="#e3b858"/>
			<stop offset=".25" stop-color="#e2b757"/>
			<stop offset=".258" stop-color="#e2b756"/>
			<stop offset=".266" stop-color="#e2b755"/>
			<stop offset=".273" stop-color="#e2b655"/>
			<stop offset=".281" stop-color="#e1b654"/>
			<stop offset=".289" stop-color="#e1b553"/>
			<stop offset=".297" stop-color="#e1b553"/>
			<stop offset=".305" stop-color="#e0b552"/>
			<stop offset=".313" stop-color="#e0b451"/>
			<stop offset=".32" stop-color="#e0b451"/>
			<stop offset=".328" stop-color="#e0b350"/>
			<stop offset=".336" stop-color="#dfb34f"/>
			<stop offset=".344" stop-color="#dfb34f"/>
			<stop offset=".352" stop-color="#dfb24e"/>
			<stop offset=".359" stop-color="#dfb24d"/>
			<stop offset=".367" stop-color="#deb14d"/>
			<stop offset=".375" stop-color="#deb14c"/>
			<stop offset=".383" stop-color="#deb14b"/>
			<stop offset=".391" stop-color="#ddb04b"/>
			<stop offset=".398" stop-color="#ddb04a"/>
			<stop offset=".406" stop-color="#ddaf49"/>
			<stop offset=".414" stop-color="#ddaf49"/>
			<stop offset=".422" stop-color="#dcaf48"/>
			<stop offset=".43" stop-color="#dcae47"/>
			<stop offset=".438" stop-color="#dcae47"/>
			<stop offset=".445" stop-color="#dcad46"/>
			<stop offset=".453" stop-color="#dbad45"/>
			<stop offset=".461" stop-color="#dbad45"/>
			<stop offset=".469" stop-color="#dbac44"/>
			<stop offset=".477" stop-color="#daac43"/>
			<stop offset=".484" stop-color="#daab43"/>
			<stop offset=".492" stop-color="#daab42"/>
			<stop offset=".5" stop-color="#daab41"/>
			<stop offset=".508" stop-color="#d9aa41"/>
			<stop offset=".516" stop-color="#d9aa40"/>
			<stop offset=".523" stop-color="#d9a93f"/>
			<stop offset=".531" stop-color="#d9a93f"/>
			<stop offset=".539" stop-color="#d8a93e"/>
			<stop offset=".547" stop-color="#d8a83d"/>
			<stop offset=".555" stop-color="#d8a83d"/>
			<stop offset=".563" stop-color="#d7a83c"/>
			<stop offset=".57" stop-color="#d7a73b"/>
			<stop offset=".578" stop-color="#d7a73b"/>
			<stop offset=".586" stop-color="#d7a63a"/>
			<stop offset=".594" stop-color="#d6a639"/>
			<stop offset=".602" stop-color="#d6a639"/>
			<stop offset=".609" stop-color="#d6a538"/>
			<stop offset=".617" stop-color="#d6a537"/>
			<stop offset=".625" stop-color="#d5a437"/>
			<stop offset=".633" stop-color="#d5a436"/>
			<stop offset=".641" stop-color="#d5a435"/>
			<stop offset=".648" stop-color="#d4a335"/>
			<stop offset=".656" stop-color="#d4a334"/>
			<stop offset=".664" stop-color="#d4a233"/>
			<stop offset=".672" stop-color="#d4a233"/>
			<stop offset=".68" stop-color="#d3a232"/>
			<stop offset=".688" stop-color="#d3a131"/>
			<stop offset=".695" stop-color="#d3a131"/>
			<stop offset=".703" stop-color="#d3a030"/>
			<stop offset=".711" stop-color="#d2a02f"/>
			<stop offset=".719" stop-color="#d2a02f"/>
			<stop offset=".727" stop-color="#d29f2e"/>
			<stop offset=".734" stop-color="#d19f2d"/>
			<stop offset=".742" stop-color="#d19e2d"/>
			<stop offset=".75" stop-color="#d19e2c"/>
			<stop offset=".758" stop-color="#d19e2b"/>
			<stop offset=".766" stop-color="#d09d2a"/>
			<stop offset=".773" stop-color="#d09d2a"/>
			<stop offset=".781" stop-color="#d09c29"/>
			<stop offset=".789" stop-color="#d09c28"/>
			<stop offset=".797" stop-color="#cf9c28"/>
			<stop offset=".805" stop-color="#cf9b27"/>
			<stop offset=".813" stop-color="#cf9b26"/>
			<stop offset=".82" stop-color="#ce9a26"/>
			<stop offset=".828" stop-color="#ce9a25"/>
			<stop offset=".836" stop-color="#ce9a24"/>
			<stop offset=".844" stop-color="#ce9924"/>
			<stop offset=".852" stop-color="#cd9923"/>
			<stop offset=".859" stop-color="#cd9822"/>
			<stop offset=".867" stop-color="#cd9822"/>
			<stop offset=".875" stop-color="#cd9821"/>
			<stop offset=".883" stop-color="#cc9720"/>
			<stop offset=".891" stop-color="#cc9720"/>
			<stop offset=".898" stop-color="#cc961f"/>
			<stop offset=".906" stop-color="#cb961e"/>
			<stop offset=".914" stop-color="#cb961e"/>
			<stop offset=".922" stop-color="#cb951d"/>
			<stop offset=".93" stop-color="#cb951c"/>
			<stop offset=".938" stop-color="#ca941c"/>
			<stop offset=".945" stop-color="#ca941b"/>
			<stop offset=".953" stop-color="#ca941a"/>
			<stop offset=".961" stop-color="#c9931a"/>
			<stop offset=".969" stop-color="#c99319"/>
			<stop offset=".977" stop-color="#c99218"/>
			<stop offset=".984" stop-color="#c99218"/>
			<stop offset=".992" stop-color="#c89217"/>
			<stop offset="1" stop-color="#c89116"/>
		</linearGradient>
		<clipPath clipPathUnits="userSpaceOnUse" id="cp11">
			<path d="m224 78.57h52v49.43h-52z"/>
		</clipPath>
		<clipPath clipPathUnits="userSpaceOnUse" id="cp12">
			<path d="m281.33 98.67h40v39.9h-40z"/>
		</clipPath>
		<clipPath clipPathUnits="userSpaceOnUse" id="cp13">
			<path d="m178.33 98.67h40.34v39.9h-40.34z"/>
		</clipPath>
	</defs>
	<style>
		.s0 { fill: #c88a00 } 
		.s1 { fill: #ebc46c } 
		.s2 { fill: url(#g1) } 
		.s3 { fill: #ffffff } 
	</style>
	<g id="Clip-Path" clip-path="url(#cp1)">
		<g>
			<path class="s0" d="m250.01 18.05c-30.73 0.01-60.31 10.22-89.29 20.14-28.34 9.68-56.12 19.05-82.69 19.05h-4.09c-1.6 0-3.13 0.63-4.26 1.77-1.13 1.12-1.76 2.65-1.76 4.25v226.84q0.03 0.08 0.06 0.17c0.66 47.83 12.71 78.42 41.11 105.24 28.42 26.84 72.3 50.42 137.9 88.29 0.92 0.53 1.95 0.81 3.01 0.81 1.06 0 2.09-0.28 3.01-0.81 61.49-35.5 105.33-58.71 134.72-85.89 29.39-27.18 43.57-58.89 44.32-107.71l-1.76 1.75 1.79-6.08v-222.61c0-1.6-0.64-3.13-1.76-4.25-1.13-1.13-2.66-1.77-4.26-1.77h-4.09c-26.62 0-54.37-9.36-82.69-19.05-28.98-9.92-58.56-20.13-89.27-20.14zm0 12.04c28.01 0 56.39 9.57 85.37 19.49 27.7 9.47 55.93 19.2 84.66 19.62v220.74q-0.02 0.04-0.03 0.08c-0.72 46.67-12.98 73.64-40.46 99.06-26.99 24.97-69.61 48.02-129.55 82.57-63.91-36.85-106.65-60.33-132.65-84.88-26.43-24.97-36.72-50.7-37.34-96.74q-0.03-0.08-0.06-0.15v-220.68c28.69-0.42 56.94-10.14 84.66-19.62 28.98-9.92 57.36-19.49 85.4-19.49zm175.86 254q0.06 0 0.1 0-0.7 0.2-1.34 0.56c0.06-0.07 0.4-0.47 0.4-0.47 0 0 0.39-0.06 0.46-0.07 0.17-0.01 0.21-0.01 0.25-0.02 0.08 0 0.1 0 0.13 0z"/>
		</g>
	</g>
	<g id="Clip-Path" clip-path="url(#cp2)">
		<g>
			<path class="s1" d="m250.01 26.87c-30.73 0-60.31 10.22-89.29 20.14-28.34 9.68-56.12 19.05-82.69 19.05h-4.09c-1.6 0-3.13 0.63-4.26 1.76-1.13 1.13-1.76 2.66-1.76 4.26v226.84q0.03 0.08 0.06 0.16c0.66 47.84 12.71 78.43 41.11 105.25 28.42 26.84 72.3 50.41 137.9 88.29 0.92 0.53 1.95 0.81 3.01 0.81 1.06 0 2.09-0.28 3.01-0.81 61.49-35.5 105.33-58.71 134.72-85.89 29.39-27.18 43.57-58.9 44.32-107.71l-1.76 1.75 1.79-6.08v-222.61c0-1.6-0.64-3.13-1.76-4.26-1.13-1.13-2.66-1.76-4.26-1.76h-4.09c-26.62 0-54.37-9.37-82.69-19.05-28.98-9.92-58.56-20.14-89.27-20.14zm0 12.04c28.01 0 56.39 9.57 85.37 19.48 27.7 9.48 55.93 19.2 84.66 19.63v220.74q-0.02 0.04-0.03 0.07c-0.72 46.67-12.98 73.65-40.46 99.07-26.99 24.96-69.61 48.02-129.55 82.56-63.91-36.85-106.65-60.33-132.65-84.88-26.43-24.97-36.72-50.69-37.34-96.74q-0.03-0.07-0.06-0.15v-220.67c28.69-0.43 56.94-10.15 84.66-19.62v-0.01c28.98-9.91 57.36-19.48 85.4-19.48zm175.86 254q0.06 0 0.1 0-0.7 0.2-1.34 0.56c0.06-0.07 0.4-0.48 0.4-0.48 0 0 0.39-0.05 0.46-0.06 0.17-0.02 0.21-0.02 0.25-0.02 0.08 0 0.1 0 0.13 0z"/>
		</g>
	</g>
	<g>
		<g id="Clip-Path" clip-path="url(#cp3)">
			<g>
				<g>
					<g>
						<g>
							<path class="s0" d="m132.81 243.18h5.56v10.69q-2.15 1.63-4.98 2.5-2.81 0.85-5.66 0.85-4.11 0-7.4-1.75-3.27-1.74-5.15-4.85-1.85-3.12-1.85-7.02 0-3.91 1.85-7.02 1.88-3.13 5.19-4.88 3.31-1.75 7.46-1.75 3.46 0 6.27 1.17 2.83 1.17 4.77 3.4l-3.92 3.62q-2.83-2.98-6.81-2.98-2.52 0-4.48 1.06-1.96 1.05-3.06 2.96-1.08 1.92-1.08 4.42 0 2.44 1.08 4.35 1.1 1.93 3.04 3 1.94 1.07 4.42 1.07 2.64 0 4.75-1.13z"/>
						</g>
					</g>
				</g>
				<g>
					<g>
						<g>
							<path class="s0" d="m161.37 251.12h-12.22l-2.34 5.65h-6.25l11.75-26.36h6.02l11.77 26.36h-6.39zm-1.92-4.63l-4.19-10.1-4.16 10.1z"/>
						</g>
					</g>
				</g>
				<g>
					<g>
						<g>
							<path class="s0" d="m189.65 256.77l-5.09-7.34h-5.6v7.34h-6.1v-26.36h11.41q3.5 0 6.07 1.17 2.58 1.17 3.97 3.31 1.4 2.15 1.4 5.08 0 2.94-1.42 5.07-1.42 2.12-4 3.25l5.9 8.48zm-0.13-16.8q0-2.22-1.43-3.39-1.42-1.19-4.17-1.19h-4.96v9.19h4.96q2.75 0 4.17-1.21 1.43-1.21 1.43-3.4z"/>
						</g>
					</g>
				</g>
				<g>
					<g>
						<g>
							<path class="s0" d="m217.88 251.12h-12.23l-2.33 5.65h-6.25l11.75-26.36h6.02l11.77 26.36h-6.4zm-1.91-4.63l-4.19-10.1-4.17 10.1z"/>
						</g>
					</g>
				</g>
				<g>
					<g>
						<g>
							<path class="s0" d="m253.53 230.41v26.36h-5l-13.15-16v16h-6.02v-26.36h5.04l13.11 16v-16z"/>
						</g>
					</g>
				</g>
				<g>
					<g>
						<g>
							<path class="s0" d="m265.24 235.39h-8.44v-4.98h22.98v4.98h-8.44v21.38h-6.1z"/>
						</g>
					</g>
				</g>
				<g>
					<g>
						<g>
							<path class="s0" d="m283.04 230.41h6.11v26.36h-6.11zm4.69-7.57h6.33l-6.81 5.42h-4.6z"/>
						</g>
					</g>
				</g>
				<g>
					<g>
						<g>
							<path class="s0" d="m312.75 251.12h-12.23l-2.34 5.65h-6.25l11.75-26.36h6.02l11.77 26.36h-6.39zm-1.92-4.63l-4.19-10.1-4.16 10.1z"/>
						</g>
					</g>
				</g>
				<g>
					<g>
						<g>
						</g>
					</g>
				</g>
				<g>
					<g>
						<g>
							<path class="s0" d="m334.88 230.41h11.98q4.29 0 7.58 1.65 3.29 1.62 5.11 4.6 1.83 2.99 1.83 6.94 0 3.94-1.83 6.92-1.82 2.98-5.11 4.62-3.29 1.63-7.58 1.63h-11.98zm11.67 21.35q3.95 0 6.31-2.21 2.35-2.2 2.35-5.96 0-3.76-2.35-5.98-2.36-2.2-6.31-2.2h-5.57v16.35z"/>
						</g>
					</g>
				</g>
				<g>
					<g>
						<g>
							<path class="s0" d="m386.37 251.87v4.9h-20.39v-26.36h19.91v4.9h-13.85v5.73h12.23v4.73h-12.23v6.1z"/>
						</g>
					</g>
				</g>
				<g>
					<g>
						<g>
							<path class="s0" d="m117.73 267.97h11.98q4.29 0 7.58 1.64 3.29 1.63 5.1 4.61 1.84 2.98 1.84 6.93 0 3.94-1.84 6.92-1.81 2.98-5.1 4.62-3.29 1.63-7.58 1.63h-11.98zm11.66 21.35q3.96 0 6.32-2.2 2.35-2.21 2.35-5.96 0-3.77-2.35-5.98-2.36-2.21-6.32-2.21h-5.56v16.35z"/>
						</g>
					</g>
				</g>
				<g>
					<g>
						<g>
							<path class="s0" d="m169.22 289.42v4.9h-20.4v-26.35h19.92v4.89h-13.85v5.73h12.22v4.73h-12.22v6.1z"/>
						</g>
					</g>
				</g>
				<g>
					<g>
						<g>
							<path class="s0" d="m199.42 267.97l-11.4 26.35h-6.04l-11.36-26.35h6.59l8.02 18.83 8.12-18.83z"/>
						</g>
					</g>
				</g>
				<g>
					<g>
						<g>
							<path class="s0" d="m214.94 294.78q-4.11 0-7.42-1.77-3.29-1.77-5.17-4.88-1.85-3.1-1.85-6.98 0-3.89 1.85-7 1.88-3.1 5.17-4.87 3.31-1.77 7.42-1.77 4.1 0 7.37 1.77 3.27 1.77 5.15 4.87 1.89 3.11 1.89 7 0 3.88-1.89 6.98-1.88 3.11-5.15 4.88-3.27 1.77-7.37 1.77zm0-5.21q2.33 0 4.21-1.06 1.87-1.08 2.93-3 1.08-1.92 1.09-4.36-0.01-2.45-1.09-4.37-1.06-1.92-2.93-2.98-1.88-1.08-4.21-1.08-2.34 0-4.23 1.08-1.88 1.06-2.96 2.98-1.06 1.92-1.06 4.37 0 2.44 1.06 4.36 1.08 1.92 2.96 3 1.89 1.06 4.23 1.06z"/>
						</g>
					</g>
				</g>
				<g>
					<g>
						<g>
							<path class="s0" d="m233.94 267.97h6.1v21.37h13.21v4.98h-19.31z"/>
						</g>
					</g>
				</g>
				<g>
					<g>
						<g>
							<path class="s0" d="m268.38 294.78q-5.65 0-8.79-3.13-3.14-3.12-3.14-8.93v-14.75h6.1v14.54q0 7.06 5.88 7.06 2.85 0 4.35-1.71 1.52-1.7 1.52-5.35v-14.54h6.02v14.75q0 5.81-3.14 8.93-3.15 3.13-8.8 3.13z"/>
						</g>
					</g>
				</g>
				<g>
					<g>
						<g>
							<path class="s0" d="m298.94 294.78q-4.02 0-7.29-1.75-3.25-1.75-5.12-4.86-1.86-3.12-1.86-7.02 0-3.91 1.86-7.02 1.87-3.12 5.12-4.87 3.27-1.75 7.34-1.75 3.43 0 6.18 1.21 2.77 1.2 4.67 3.45l-3.92 3.63q-2.68-3.08-6.62-3.08-2.46 0-4.38 1.08-1.92 1.06-3 2.98-1.06 1.92-1.06 4.37 0 2.44 1.06 4.36 1.08 1.92 3 3 1.92 1.06 4.38 1.06 3.94 0 6.62-3.13l3.92 3.63q-1.9 2.3-4.69 3.5-2.77 1.21-6.21 1.21z"/>
						</g>
					</g>
				</g>
				<g>
					<g>
						<g>
							<path class="s0" d="m313.93 267.97h6.11v26.35h-6.11z"/>
						</g>
					</g>
				</g>
				<g>
					<g>
						<g>
							<path class="s0" d="m339.05 294.78q-4.1 0-7.41-1.77-3.3-1.77-5.17-4.88-1.86-3.1-1.85-6.98-0.01-3.89 1.85-7 1.87-3.1 5.17-4.87 3.31-1.77 7.41-1.77 4.1 0 7.38 1.77 3.27 1.77 5.14 4.87 1.9 3.11 1.9 7 0 3.88-1.9 6.98-1.87 3.11-5.14 4.88-3.28 1.77-7.38 1.77zm0-5.21q2.33 0 4.21-1.06 1.88-1.08 2.94-3 1.08-1.92 1.08-4.36 0-2.45-1.08-4.37-1.06-1.92-2.94-2.98-1.88-1.08-4.21-1.08-2.33 0-4.23 1.08-1.87 1.06-2.95 2.98-1.07 1.92-1.07 4.37 0 2.44 1.07 4.36 1.08 1.92 2.95 3 1.9 1.06 4.23 1.06zm1.65-29.17h6.33l-6.81 5.42h-4.6z"/>
						</g>
					</g>
				</g>
				<g>
					<g>
						<g>
							<path class="s0" d="m382.22 267.97v26.35h-5l-13.15-16v16h-6.02v-26.35h5.05l13.1 16v-16z"/>
						</g>
					</g>
				</g>
			</g>
		</g>
	</g>
	<g>
		<g id="Clip-Path" clip-path="url(#cp4)">
			<g>
				<g>
					<g>
						<g>
							<path class="s0" d="m171.2 165.36v9.75l-15.67 37.31h-17.35l14.93-34.75h-9.08v6.85h-13.1v-19.16z"/>
						</g>
					</g>
				</g>
				<g>
					<g>
						<g>
						</g>
					</g>
				</g>
				<g>
					<g>
						<g>
							<path class="s0" d="m196.88 165.36h23.19q7.87 0 13.87 2.85 6.02 2.86 9.36 8.17 3.33 5.31 3.33 12.52 0 7.18-3.33 12.5-3.34 5.31-9.36 8.16-6 2.86-13.87 2.86h-23.19zm22.52 34.69q5.1 0 8.17-2.92 3.06-2.94 3.06-8.23 0-5.31-3.06-8.23-3.07-2.94-8.17-2.94h-6.65v22.32z"/>
						</g>
					</g>
				</g>
				<g>
					<g>
						<g>
							<path class="s0" d="m252.41 165.36h15.88v47.06h-15.88zm9.75-14.59h14.46l-13.25 10.75h-10.08z"/>
						</g>
					</g>
				</g>
				<g>
					<g>
						<g>
							<path class="s0" d="m308.01 204.21h-17.88l-3.16 8.21h-16.13l20.56-47.06h15.61l20.56 47.06h-16.4zm-4.37-11.42l-4.56-11.83-4.57 11.83z"/>
						</g>
					</g>
				</g>
				<g id="Clip-Path" clip-path="url(#cp5)">
					<g>
						<g>
							<g>
								<g>
									<path class="s0" d="m347.68 213.5q-5.86 0-11.4-1.31-5.54-1.31-9.1-3.54l5.1-11.57q3.37 1.96 7.54 3.15 4.17 1.17 8 1.17 3.29 0 4.69-0.65 1.41-0.64 1.42-1.92-0.01-1.47-1.86-2.2-1.83-0.75-6.06-1.63-5.46-1.14-9.08-2.46-3.63-1.31-6.34-4.29-2.68-3-2.68-8.1-0.01-4.44 2.47-8.07 2.5-3.62 7.44-5.7 4.95-2.11 12-2.11 4.85 0 9.52 1.06 4.67 1.05 8.23 3.05l-4.77 11.5q-6.92-3.5-13.1-3.5-6.13 0-6.13 2.95 0 1.43 1.81 2.13 1.83 0.71 6 1.52 5.38 1 9.07 2.31 3.7 1.32 6.41 4.27 2.73 2.96 2.73 8.07 0 4.44-2.5 8.04-2.48 3.58-7.41 5.71-4.94 2.12-12 2.12z"/>
								</g>
							</g>
						</g>
					</g>
				</g>
			</g>
		</g>
	</g>
	<g id="Clip-Path" clip-path="url(#cp6)">
		<g>
			<g id="Clip-Path" clip-path="url(#cp7)">
				<g>
					<g>
						<g id="Clip-Path" clip-path="url(#cp8)">
							<g>
								<g id="Clip-Path" clip-path="url(#cp9)">
									<g>
										<g id="Clip-Path" clip-path="url(#cp10)">
											<g>
												<path class="s2" d="m148.3 305.12v41.78h203.4v-41.78z"/>
											</g>
										</g>
									</g>
								</g>
							</g>
						</g>
					</g>
				</g>
			</g>
		</g>
	</g>
	<g>
		<g>
			<g>
				<path class="s3" d="m177.15 335.5q-2.25 0-4.4-0.56-2.12-0.56-3.45-1.5l1.73-3.9q1.24 0.84 2.89 1.36 1.66 0.5 3.27 0.5 3.04 0 3.04-1.52 0-0.82-0.87-1.19-0.88-0.39-2.79-0.81-2.11-0.46-3.52-0.98-1.4-0.52-2.42-1.67-1.02-1.14-1.02-3.08 0-1.71 0.94-3.09 0.93-1.37 2.79-2.16 1.85-0.82 4.54-0.82 1.83 0.01 3.62 0.42 1.79 0.42 3.15 1.21l-1.62 3.92q-2.67-1.44-5.17-1.44-1.59 0-2.31 0.48-0.71 0.46-0.71 1.21 0 0.75 0.85 1.12 0.85 0.38 2.75 0.77 2.13 0.44 3.52 0.96 1.42 0.53 2.44 1.67 1.02 1.12 1.02 3.08 0 1.67-0.94 3.04-0.92 1.36-2.79 2.17-1.87 0.81-4.54 0.81z"/>
			</g>
		</g>
	</g>
	<g>
		<g>
			<g>
				<path class="s3" d="m187.86 316.46h5.27v18.67h-5.27z"/>
			</g>
		</g>
	</g>
	<g>
		<g>
			<g>
				<path class="s3" d="m214.64 316.46v18.67h-4.35l-8.23-9.94v9.94h-5.17v-18.67h4.34l8.25 9.94v-9.94z"/>
			</g>
		</g>
	</g>
	<g>
		<g>
			<g>
			</g>
		</g>
	</g>
	<g>
		<g>
			<g>
				<path class="s3" d="m234.28 330.17h-2.88v4.96h-5.27v-18.67h8.52q2.54 0 4.4 0.85 1.88 0.84 2.88 2.4 1.01 1.54 1.02 3.67-0.01 2.02-0.96 3.52-0.94 1.5-2.69 2.35l4.02 5.88h-5.64zm3.33-6.8q0-1.31-0.83-2.02-0.82-0.72-2.44-0.73h-2.94v5.46h2.94q1.62 0 2.44-0.71 0.83-0.7 0.83-2z"/>
			</g>
		</g>
	</g>
	<g>
		<g>
			<g>
				<path class="s3" d="m245.86 316.46h5.27v18.67h-5.27z"/>
			</g>
		</g>
	</g>
	<g>
		<g>
			<g>
				<path class="s3" d="m269.88 331.04v4.09h-14.98v-18.67h14.62v4.08h-9.42v3.15h8.32v3.94h-8.32v3.41z"/>
			</g>
		</g>
	</g>
	<g>
		<g>
			<g>
				<path class="s3" d="m279.35 335.5q-2.25 0-4.4-0.56-2.12-0.56-3.45-1.5l1.73-3.9q1.24 0.84 2.89 1.36 1.66 0.5 3.27 0.5 3.04 0 3.04-1.52 0-0.82-0.87-1.19-0.88-0.39-2.79-0.81-2.11-0.46-3.52-0.98-1.4-0.52-2.42-1.67-1.02-1.14-1.02-3.08 0-1.71 0.94-3.09 0.93-1.37 2.79-2.16 1.85-0.82 4.54-0.82 1.83 0.01 3.62 0.42 1.79 0.42 3.15 1.21l-1.62 3.92q-2.67-1.44-5.17-1.44-1.59 0-2.31 0.48-0.71 0.46-0.71 1.21 0 0.75 0.85 1.12 0.85 0.38 2.75 0.77 2.13 0.44 3.52 0.96 1.42 0.53 2.44 1.67 1.02 1.12 1.02 3.08 0 1.67-0.94 3.04-0.92 1.36-2.79 2.17-1.87 0.81-4.54 0.81z"/>
			</g>
		</g>
	</g>
	<g>
		<g>
			<g>
				<path class="s3" d="m302.56 325.4h4.66v7.73q-1.61 1.14-3.69 1.77-2.08 0.6-4.14 0.6-2.94 0-5.29-1.23-2.34-1.25-3.67-3.46-1.33-2.22-1.33-5.02 0-2.79 1.33-5 1.33-2.22 3.69-3.46 2.37-1.25 5.37-1.25 2.6 0.01 4.69 0.9 2.08 0.88 3.46 2.52l-3.36 3.04q-1.89-2.08-4.52-2.08-2.42 0-3.87 1.46-1.46 1.46-1.46 3.87 0 1.55 0.67 2.77 0.66 1.21 1.85 1.9 1.2 0.67 2.75 0.67 1.52 0 2.86-0.61z"/>
			</g>
		</g>
	</g>
	<g>
		<g>
			<g>
				<path class="s3" d="m319.98 335.5q-2.96 0-5.32-1.25-2.35-1.25-3.7-3.46-1.34-2.22-1.34-5 0-2.76 1.34-4.98 1.35-2.22 3.7-3.48 2.36-1.25 5.32-1.25 2.97 0 5.33 1.25 2.35 1.26 3.69 3.48 1.35 2.22 1.35 4.98 0 2.78-1.35 5-1.34 2.21-3.69 3.46-2.36 1.25-5.33 1.25zm0-4.37q1.41 0 2.56-0.67 1.14-0.66 1.81-1.88 0.67-1.2 0.67-2.79 0-1.58-0.67-2.79-0.67-1.2-1.81-1.87-1.15-0.67-2.56-0.67-1.4 0-2.55 0.67-1.14 0.67-1.81 1.87-0.67 1.21-0.66 2.79-0.01 1.59 0.66 2.79 0.67 1.22 1.81 1.88 1.15 0.67 2.55 0.67z"/>
			</g>
		</g>
	</g>
	<g id="Clip-Path" clip-path="url(#cp11)">
		<g>
			<path class="s0" d="m250 78.57l7.89 15.99 17.64 2.56-12.76 12.44 3.01 17.57-15.78-8.3-15.78 8.3 3.01-17.57-12.76-12.44 17.64-2.56z"/>
		</g>
	</g>
	<g id="Clip-Path" clip-path="url(#cp12)">
		<g>
			<path class="s0" d="m303.95 99.79l4.25 13.13 13.22 3.95-11.17 8.1 0.33 13.79-11.15-8.12-13.02 4.58 4.28-13.12-8.38-10.96 13.8 0.01z"/>
		</g>
	</g>
	<g id="Clip-Path" clip-path="url(#cp13)">
		<g>
			<path class="s0" d="m196.05 99.79l-4.25 13.13-13.23 3.95 11.18 8.1-0.34 13.79 11.16-8.12 13.02 4.58-4.28-13.12 8.38-10.96-13.8 0.01z"/>
		</g>
	</g>
</svg>